<svg id="Layer_1" xmlns="http://www.w3.org/2000/svg" viewBox="0 0 60.1 60.1"><style>.st0{fill:gray}</style><path class="st0" d="M0 0v60.1h60.1V0H0zm32.8 47c0 1-.2 2.1-.5 3.1-.7 2.5-2.3 4.2-4.9 4.8-2.9.8-5.8.6-8.4-1-1.5-.9-2.5-2.2-3.2-3.8 1.6-1 3.1-1.9 4.6-2.8.3.5.6 1 1 1.5 1 1.3 2.5 1.8 4 1.2 1.2-.4 1.5-1.5 1.6-2.6V27.5h5.7v15.3c.1 1.6.1 3 .1 4.2zm21 5.5c-1.3 1.5-3 2.3-4.9 2.7-3.2.6-6.3.3-9.1-1.3-1.7-1-3-2.4-4-4.3 1.6-.9 3.1-1.8 4.6-2.7.3.4.5.8.8 1.1 1.6 2 4.1 2.8 6.5 2 1-.3 1.8-.9 2-2 .2-1.2-.2-2.2-1.3-2.8-1.2-.6-2.4-1.2-3.7-1.8-1.7-.6-3.3-1.4-4.7-2.6-2.4-2.3-3.1-5.1-2.2-8.2.8-3 3.1-4.7 6.1-5.2 2.4-.4 4.8-.3 7 1.1 1.2.7 2.5 2.1 3 3.4-1.4.9-2.9 1.9-4.4 2.8-.2-.3-.4-.6-.6-.8-.9-1.3-2.2-1.8-3.7-1.5-.9.2-1.6.6-1.9 1.6-.3.9-.2 1.9.6 2.5.7.5 1.5 1 2.2 1.4 1.9 1 3.9 1.8 5.7 2.9 4.7 2.7 4.5 8.9 2 11.7z"/></svg>